<svg width="152" height="35" viewBox="0 0 152 35" fill="none" xmlns="http://www.w3.org/2000/svg">
<g clip-path="url(#clip0_19_253)">
<rect width="35" height="35" rx="17.5" fill="url(#paint0_linear_19_253)"/>
<path d="M16.3154 29.3112L12.8088 17.9926L11.7402 15.0269L9.41538 23.5864L6.27304 19.5488H-0.613665C-0.860066 19.5403 -1.09356 19.4365 -1.26489 19.2593C-1.43622 19.082 -1.53198 18.8451 -1.53198 18.5985C-1.53198 18.352 -1.43622 18.1151 -1.26489 17.9378C-1.09356 17.7605 -0.860066 17.6567 -0.613665 17.6483H7.20719L8.58231 19.4155L11.4836 8.7111L14.616 17.4095L15.7001 20.9061L18.0693 5.68872L21.0095 16.873L22.5723 16.9218L23.8608 19.6432L26.5911 9.58637L29.479 17.6161H35.6138C35.8602 17.6245 36.0936 17.7283 36.265 17.9056C36.4363 18.0829 36.5321 18.3198 36.5321 18.5663C36.5321 18.8129 36.4363 19.0498 36.265 19.227C36.0936 19.4043 35.8602 19.5081 35.6138 19.5166H28.1428L26.841 15.901L24.3418 25.1092L21.3427 18.7857L19.5366 18.7201L18.5503 14.9691L16.3154 29.3112Z" fill="white"/>
</g>
<path d="M43.5976 19.9393V26H40.336V9.66843H46.281C48.2087 9.66843 49.6584 10.1311 50.6299 11.0564C51.6169 11.9817 52.1104 13.2386 52.1104 14.827C52.1104 16.3846 51.6015 17.626 50.5837 18.5513C49.5813 19.4766 48.147 19.9393 46.281 19.9393H43.5976ZM45.934 17.3253C47.8463 17.3253 48.8025 16.4925 48.8025 14.827C48.8025 14.0096 48.5788 13.3851 48.1316 12.9533C47.6844 12.5214 46.9519 12.3055 45.934 12.3055H43.5976V17.3253H45.934ZM53.8589 9.5065C53.8589 8.98217 54.044 8.55807 54.4141 8.23422C54.7842 7.89494 55.27 7.7253 55.8714 7.7253C56.4729 7.7253 56.9587 7.89494 57.3288 8.23422C57.6989 8.55807 57.884 8.98217 57.884 9.5065C57.884 10.0154 57.6989 10.4395 57.3288 10.7788C56.9587 11.1026 56.4729 11.2646 55.8714 11.2646C55.27 11.2646 54.7842 11.1026 54.4141 10.7788C54.044 10.4395 53.8589 10.0154 53.8589 9.5065ZM57.4907 13.1846V26H54.229V13.1846H57.4907ZM63.7031 8.88193V26H60.4414V8.88193H63.7031ZM72.5757 13.0226C73.8248 13.0226 74.9429 13.2848 75.9299 13.8092C76.9323 14.3335 77.7188 15.0969 78.2894 16.0993C78.86 17.0863 79.1453 18.2506 79.1453 19.5923C79.1453 20.934 78.86 22.0983 78.2894 23.0853C77.7188 24.0723 76.9323 24.8357 75.9299 25.3754C74.9429 25.8998 73.8248 26.1619 72.5757 26.1619C71.3265 26.1619 70.2007 25.8998 69.1983 25.3754C68.2113 24.8357 67.4325 24.0723 66.8619 23.0853C66.2913 22.0983 66.006 20.934 66.006 19.5923C66.006 18.2506 66.2913 17.0863 66.8619 16.0993C67.4325 15.0969 68.2113 14.3335 69.1983 13.8092C70.2007 13.2848 71.3265 13.0226 72.5757 13.0226ZM72.5757 15.8448C71.6658 15.8448 70.8947 16.1687 70.2624 16.8164C69.6301 17.4487 69.314 18.374 69.314 19.5923C69.314 20.8106 69.6301 21.7436 70.2624 22.3913C70.8947 23.0236 71.6658 23.3398 72.5757 23.3398C73.4855 23.3398 74.2566 23.0236 74.8889 22.3913C75.5212 21.7436 75.8373 20.8106 75.8373 19.5923C75.8373 18.374 75.5212 17.4487 74.8889 16.8164C74.2566 16.1687 73.4855 15.8448 72.5757 15.8448ZM88.2976 23.201V26H86.5858C85.1516 26 84.049 25.653 83.2779 24.959C82.5222 24.2651 82.1444 23.1084 82.1444 21.4892V15.9373H80.3632V13.1846H82.1444V10.0154H85.4061V13.1846H88.2745V15.9373H85.4061V21.5354C85.4061 22.1523 85.5294 22.5841 85.7762 22.8308C86.0229 23.0776 86.4393 23.201 87.0254 23.201H88.2976ZM93.9064 19.9393V26H90.6447V9.66843H96.5898C98.5175 9.66843 99.9671 10.1311 100.939 11.0564C101.926 11.9817 102.419 13.2386 102.419 14.827C102.419 16.3846 101.91 17.626 100.892 18.5513C99.89 19.4766 98.4558 19.9393 96.5898 19.9393H93.9064ZM96.2428 17.3253C98.1551 17.3253 99.1112 16.4925 99.1112 14.827C99.1112 14.0096 98.8876 13.3851 98.4404 12.9533C97.9931 12.5214 97.2606 12.3055 96.2428 12.3055H93.9064V17.3253H96.2428ZM116.798 13.1846V26H113.536V23.4092C113.197 24.2728 112.634 24.9513 111.848 25.4448C111.077 25.9229 110.182 26.1619 109.164 26.1619C107.684 26.1619 106.504 25.6761 105.625 24.7046C104.746 23.733 104.306 22.3759 104.306 20.6333V13.1846H107.545V20.2631C107.545 21.281 107.807 22.0752 108.331 22.6458C108.856 23.201 109.565 23.4786 110.46 23.4786C111.4 23.4786 112.148 23.1778 112.704 22.5764C113.259 21.9749 113.536 21.1113 113.536 19.9855V13.1846H116.798ZM123.025 8.88193V26H119.764V8.88193H123.025ZM130.394 13.0226C131.952 13.0226 133.201 13.4159 134.142 14.2024C135.083 14.9889 135.669 16.0376 135.9 17.3484H132.846C132.723 16.7316 132.445 16.2381 132.014 15.868C131.582 15.4978 131.019 15.3128 130.325 15.3128C129.77 15.3128 129.338 15.4439 129.03 15.706C128.721 15.9682 128.567 16.3229 128.567 16.7701C128.567 17.1248 128.69 17.4101 128.937 17.626C129.184 17.8419 129.492 18.0116 129.862 18.1349C130.232 18.2583 130.764 18.4048 131.458 18.5745C132.43 18.7904 133.217 19.0217 133.818 19.2684C134.435 19.4998 134.959 19.8776 135.391 20.4019C135.838 20.9108 136.062 21.6048 136.062 22.4839C136.062 23.5788 135.63 24.4655 134.766 25.1441C133.918 25.8227 132.769 26.1619 131.32 26.1619C129.654 26.1619 128.32 25.7918 127.318 25.0516C126.315 24.2959 125.706 23.2241 125.49 21.8361H128.613C128.69 22.4684 128.968 22.9696 129.446 23.3398C129.924 23.6945 130.549 23.8718 131.32 23.8718C131.875 23.8718 132.299 23.7407 132.592 23.4786C132.885 23.201 133.031 22.8463 133.031 22.4145C133.031 22.0443 132.9 21.7436 132.638 21.5123C132.391 21.281 132.075 21.1036 131.69 20.9802C131.32 20.8569 130.788 20.7104 130.094 20.5407C129.137 20.3248 128.359 20.1089 127.757 19.893C127.171 19.6617 126.662 19.2993 126.23 18.8058C125.814 18.3123 125.606 17.6337 125.606 16.7701C125.606 15.6598 126.03 14.7576 126.878 14.0636C127.726 13.3696 128.898 13.0226 130.394 13.0226ZM150.543 19.1065C150.543 19.4304 150.505 19.8005 150.427 20.2169H141.036C141.082 21.3581 141.39 22.1986 141.961 22.7383C142.532 23.2781 143.241 23.548 144.089 23.548C144.845 23.548 145.469 23.3629 145.963 22.9928C146.472 22.6227 146.796 22.1214 146.934 21.4892H150.381C150.212 22.3836 149.849 23.1855 149.294 23.8949C148.739 24.6043 148.022 25.1595 147.143 25.5605C146.279 25.9614 145.315 26.1619 144.251 26.1619C143.002 26.1619 141.892 25.8998 140.92 25.3754C139.948 24.8357 139.193 24.0723 138.653 23.0853C138.113 22.0983 137.843 20.934 137.843 19.5923C137.843 18.2506 138.113 17.0863 138.653 16.0993C139.193 15.0969 139.948 14.3335 140.92 13.8092C141.892 13.2848 143.002 13.0226 144.251 13.0226C145.516 13.0226 146.618 13.2848 147.559 13.8092C148.515 14.3335 149.248 15.0583 149.757 15.9836C150.281 16.8935 150.543 17.9345 150.543 19.1065ZM147.258 18.7826C147.305 17.734 147.027 16.9398 146.426 16.4C145.84 15.8602 145.115 15.5904 144.251 15.5904C143.372 15.5904 142.632 15.8602 142.03 16.4C141.429 16.9398 141.097 17.734 141.036 18.7826H147.258Z" fill="#313131"/>
<defs>
<linearGradient id="paint0_linear_19_253" x1="17.5" y1="0" x2="17.5" y2="35" gradientUnits="userSpaceOnUse">
<stop stop-color="#6AD2FF"/>
<stop offset="1" stop-color="#4318FF"/>
</linearGradient>
<clipPath id="clip0_19_253">
<rect width="35" height="35" rx="17.5" fill="white"/>
</clipPath>
</defs>
</svg>
